<svg xmlns="http://www.w3.org/2000/svg" width="120" height="97.966" viewBox="0 0 120 97.966">
  <g id="Audio" transform="translate(-4093 -1512.459)">
    <path id="Caminho_10523" data-name="Caminho 10523" d="M1.695,0H7.458A1.7,1.7,0,0,1,9.153,1.695v9.492a1.7,1.7,0,0,1-1.695,1.695H1.695A1.7,1.7,0,0,1,0,11.186V1.695A1.7,1.7,0,0,1,1.695,0Z" transform="translate(4093 1553.476)" fill="#c4c4c4"/>
    <path id="Caminho_10522" data-name="Caminho 10522" d="M1.695,0H7.458A1.7,1.7,0,0,1,9.153,1.695V26.441a1.7,1.7,0,0,1-1.695,1.695H1.695A1.7,1.7,0,0,1,0,26.441V1.695A1.7,1.7,0,0,1,1.695,0Z" transform="translate(4111.983 1547.375)" fill="#c4c4c4"/>
    <path id="Caminho_10521" data-name="Caminho 10521" d="M1.695,0H7.458A1.7,1.7,0,0,1,9.153,1.695V61.356a1.7,1.7,0,0,1-1.695,1.695H1.695A1.7,1.7,0,0,1,0,61.356V1.695A1.7,1.7,0,0,1,1.695,0Z" transform="translate(4130.966 1528.391)" fill="#c4c4c4"/>
    <path id="Caminho_10520" data-name="Caminho 10520" d="M1.695,0H7.458A1.7,1.7,0,0,1,9.153,1.695V96.271a1.7,1.7,0,0,1-1.695,1.695H1.695A1.7,1.7,0,0,1,0,96.271V1.695A1.7,1.7,0,0,1,1.695,0Z" transform="translate(4149.949 1512.459)" fill="#c4c4c4"/>
    <path id="Caminho_10519" data-name="Caminho 10519" d="M1.695,0H7.458A1.7,1.7,0,0,1,9.153,1.695V49.153a1.7,1.7,0,0,1-1.695,1.695H1.695A1.7,1.7,0,0,1,0,49.153V1.695A1.7,1.7,0,0,1,1.695,0Z" transform="translate(4168.933 1534.493)" fill="#c4c4c4"/>
    <path id="Caminho_10517" data-name="Caminho 10517" d="M1.695,0H7.458A1.7,1.7,0,0,1,9.153,1.695V73.559a1.7,1.7,0,0,1-1.695,1.695H1.695A1.7,1.7,0,0,1,0,73.559V1.695A1.7,1.7,0,0,1,1.695,0Z" transform="translate(4187.916 1522.29)" fill="#c4c4c4"/>
    <path id="Caminho_10518" data-name="Caminho 10518" d="M1.695,0H8.136A1.7,1.7,0,0,1,9.831,1.695v9.492a1.7,1.7,0,0,1-1.695,1.695H1.695A1.7,1.7,0,0,1,0,11.186V1.695A1.7,1.7,0,0,1,1.695,0Z" transform="translate(4203.169 1553.476)" fill="#c4c4c4"/>
  </g>
</svg>
