<svg xmlns="http://www.w3.org/2000/svg" width="88" height="101" viewBox="0 0 88 101">
  <g id="PDF_Icon" data-name="PDF Icon" transform="translate(-32 0.5)">
    <path id="Caminho_10083" data-name="Caminho 10083" d="M102.249,0A6.268,6.268,0,0,0,96,6.25v87.5a6.268,6.268,0,0,0,6.249,6.25h62.493a6.268,6.268,0,0,0,6.249-6.25V25l-25-25Z" transform="translate(-51.492)" fill="#fff" stroke="#e2e2e2" stroke-width="1"/>
    <path id="Caminho_10084" data-name="Caminho 10084" d="M358.254,25.016h18.762L352,0V18.762A6.273,6.273,0,0,0,358.254,25.016Z" transform="translate(-257.516)" fill="#c3c3c3"/>
    <path id="Caminho_10085" data-name="Caminho 10085" d="M402.762,146.762,384,128h18.762Z" transform="translate(-283.262 -103.004)" fill="#e2e2e2"/>
    <path id="Caminho_10086" data-name="Caminho 10086" d="M106.992,274.4a3.135,3.135,0,0,1-3.125,3.127H35.125A3.135,3.135,0,0,1,32,274.4v-31.27A3.135,3.135,0,0,1,35.125,240h68.742a3.135,3.135,0,0,1,3.125,3.127Z" transform="translate(0 -193.143)" fill="#f15642"/>
    <g id="Grupo_10744" data-name="Grupo 10744" transform="translate(45.611 57.476)">
      <path id="Caminho_10087" data-name="Caminho 10087" d="M101.744,296.046a1.721,1.721,0,0,1,1.7-1.726h5.776a6.251,6.251,0,0,1,0,12.5h-4.175v3.3a1.57,1.57,0,0,1-1.6,1.723,1.685,1.685,0,0,1-1.7-1.723Zm3.3,1.423V303.7h4.175a3.117,3.117,0,0,0,0-6.229Z" transform="translate(-101.744 -294.32)" fill="#fff"/>
      <path id="Caminho_10088" data-name="Caminho 10088" d="M189.55,312.774a1.565,1.565,0,0,1-1.726-1.548v-14.2a1.7,1.7,0,0,1,1.726-1.551h5.726c11.426,0,11.176,17.3.225,17.3Zm1.576-14.25v11.2h4.15c6.751,0,7.052-11.2,0-11.2Z" transform="translate(-171 -295.247)" fill="#fff"/>
      <path id="Caminho_10089" data-name="Caminho 10089" d="M290.407,298.711v3.974h6.376a1.934,1.934,0,0,1,1.8,1.773,1.737,1.737,0,0,1-1.8,1.5h-6.376v5.25a1.481,1.481,0,0,1-1.5,1.548,1.588,1.588,0,0,1-1.773-1.548v-14.2a1.58,1.58,0,0,1,1.773-1.551h8.778a1.56,1.56,0,0,1,1.751,1.551,1.727,1.727,0,0,1-1.751,1.7h-7.28Z" transform="translate(-250.903 -295.234)" fill="#fff"/>
    </g>
    <path id="Caminho_10090" data-name="Caminho 10090" d="M155.359,419.127H96v3.127h59.359a3.135,3.135,0,0,0,3.124-3.127V416A3.135,3.135,0,0,1,155.359,419.127Z" transform="translate(-51.492 -334.762)" fill="#d6d6d6"/>
  </g>
</svg>
