<svg xmlns="http://www.w3.org/2000/svg" width="22" height="15.4" viewBox="0 0 22 15.4">
  <path id="Contacts" d="M9.7,12.7A3.85,3.85,0,1,0,5.85,8.85,3.854,3.854,0,0,0,9.7,12.7Zm0-5.5A1.65,1.65,0,1,1,8.05,8.85,1.648,1.648,0,0,1,9.7,7.2Zm.055,11H5.047A11.411,11.411,0,0,1,9.7,17.1c.121,0,.253.011.374.011a5.038,5.038,0,0,1,1.8-1.991A12.9,12.9,0,0,0,9.7,14.9C7.126,14.9,2,16.187,2,18.75V20.4H9.7V18.75A3.007,3.007,0,0,1,9.755,18.2Zm8.195-2.75c-2.024,0-6.05,1.111-6.05,3.3V20.4H24V18.75C24,16.561,19.974,15.45,17.95,15.45Zm1.331-2a2.75,2.75,0,1,0-2.662,0,2.692,2.692,0,0,0,2.662,0Z" transform="translate(-2 -5)" fill="#fff"/>
</svg>
