<svg width="300" height="300" viewBox="0 0 300 300" fill="none" xmlns="http://www.w3.org/2000/svg">
<g clip-path="url(#clip0)">
<path d="M150.059 0C150.409 0.292619 150.788 0.547257 151.192 0.759624L186.173 14.3942L229.279 31.1961L262.651 44.2513L276.942 49.8391C277.514 50.0195 278.043 50.3128 278.5 50.7017C277.792 50.9721 277.083 51.2553 276.362 51.5128C270.981 53.4441 265.595 55.3624 260.204 57.2679C259.393 57.5512 258.917 57.9246 259.174 58.8773C259.24 59.4201 259.244 59.9686 259.187 60.5124V119.66C259.187 121.218 259.187 122.171 261.015 122.905C262.529 123.506 263.803 124.588 264.642 125.983C265.482 127.379 265.841 129.011 265.663 130.63C265.599 132.257 265.061 133.83 264.113 135.154C263.166 136.479 261.852 137.497 260.333 138.084C258.829 138.733 257.161 138.904 255.556 138.573C253.837 138.071 252.307 137.068 251.16 135.692C250.014 134.316 249.303 132.63 249.119 130.848C248.954 128.962 249.437 127.076 250.488 125.501C251.539 123.926 253.095 122.756 254.9 122.184C255.102 122.076 255.276 121.924 255.41 121.739C255.544 121.554 255.634 121.34 255.672 121.115C255.672 100.97 255.672 80.8334 255.672 60.7056V58.9288L245.823 62.4952C239.849 64.6582 233.875 66.8212 227.875 68.9327C227.542 68.9895 227.244 69.1754 227.046 69.45C226.849 69.7247 226.767 70.0661 226.819 70.4004C226.819 74.3659 226.729 78.3572 226.665 82.3226C226.519 90.2966 226.365 98.279 226.201 106.27C226.201 106.347 226.201 106.425 226.034 106.631C202.849 94.1425 176.946 87.5541 150.612 87.4469C123.587 86.9034 96.8827 93.3754 73.1051 106.231C72.9763 106.309 72.6673 106.45 72.2682 106.643V70.3875C72.3131 70.0573 72.2281 69.7225 72.0313 69.4535C71.8344 69.1846 71.5408 69.0025 71.2124 68.9455C57.359 63.8985 43.4883 58.843 29.6005 53.7788C26.9354 52.7874 24.2445 51.9119 21.5794 50.9721C21.4377 50.9721 21.3347 50.7789 21 50.4957L22.5965 49.8906L67.4658 32.3162C75.3968 29.2005 83.3407 26.1491 91.2588 23.0462C100.46 19.3897 109.657 15.759 118.85 12.154C128.446 8.34299 138.055 4.5792 147.677 0.862624C148.138 0.625297 148.57 0.335861 148.964 0L150.059 0Z" fill="white"/>
<path d="M142.437 104.648C142.064 106.772 141.716 108.832 141.355 110.918C140.222 117.544 139.077 124.171 137.918 130.797C136.63 138.406 135.227 146.015 133.914 153.624C132.472 161.916 131.068 170.195 129.626 178.486C129.111 181.46 128.532 184.421 128.043 187.396C128.011 187.622 128.025 187.852 128.082 188.073C128.139 188.293 128.24 188.501 128.377 188.683C135.6 195.893 142.849 203.077 150.265 210.48C152.08 208.588 153.857 206.618 155.698 204.828C160.848 199.678 165.998 194.528 171.315 189.571C171.799 189.141 172.154 188.584 172.341 187.963C172.527 187.343 172.538 186.683 172.371 186.056C171.178 179.001 170.024 171.937 168.908 164.864C167.801 157.886 166.758 150.882 165.663 143.891C164.698 137.75 163.694 131.621 162.715 125.48C161.646 118.72 160.591 111.317 159.496 104.481C160.182 104.435 160.87 104.435 161.556 104.481C177.403 106.178 192.974 109.854 207.906 115.424C211.305 116.635 214.64 117.999 217.974 119.287C218.574 119.541 219.066 119.996 219.365 120.574C224.249 132.763 229.107 144.964 233.939 157.178L245.887 187.215C246.711 189.262 246.737 189.224 244.909 190.589C235.974 197.269 227.38 204.393 219.159 211.935C212.94 217.677 206.696 223.445 200.799 229.522C194.593 235.96 188.645 242.578 182.774 249.311C173.745 259.682 165.726 270.891 158.827 282.786C155.737 288.155 153.123 293.781 150.278 299.292C150.143 299.513 149.993 299.724 149.827 299.923C148.926 298.095 148.115 296.382 147.252 294.773C141.991 284.788 136.028 275.189 129.407 266.049C120.62 253.855 111.001 242.283 100.619 231.415C91.3056 221.573 81.4174 212.291 71.0065 203.618C65.187 198.777 59.0843 194.284 53.136 189.623C53.0292 189.524 52.9468 189.401 52.8954 189.265C52.8441 189.129 52.825 188.982 52.8399 188.838C54.1274 185.889 55.4149 182.992 56.7024 180.018C60.1143 171.688 63.4618 163.281 66.8479 154.989L80.843 120.677C81.152 120.039 81.6513 119.513 82.2721 119.171C89.4088 115.289 96.9924 112.293 104.855 110.249C110.996 108.652 117.215 107.197 123.472 106.232C129.487 105.219 135.567 104.643 141.664 104.506C141.926 104.525 142.185 104.573 142.437 104.648Z" fill="white"/>
</g>
<defs>
<clipPath id="clip0">
<rect width="257.5" height="300" fill="white" transform="translate(21)"/>
</clipPath>
</defs>
</svg>
