<svg xmlns="http://www.w3.org/2000/svg" width="22" height="18.257" viewBox="0 0 22 18.257">
  <path id="União_13" data-name="União 13" d="M16.3,18.257a.239.239,0,0,1-.24-.2l-.192-1.307a3.291,3.291,0,0,1-.722-.4l-1.221.481a.244.244,0,0,1-.3-.106L12.633,15a.239.239,0,0,1,.058-.308l1.029-.817a3.96,3.96,0,0,1,.01-.827L12.7,12.22a.24.24,0,0,1-.058-.308l.991-1.721a.233.233,0,0,1,.3-.106l1.23.481a3.994,3.994,0,0,1,.712-.4l.192-1.307a.247.247,0,0,1,.241-.2H18.3a.239.239,0,0,1,.24.212l.193,1.307a3.3,3.3,0,0,1,.721.4l1.23-.481a.245.245,0,0,1,.3.106l.99,1.721a.238.238,0,0,1-.058.308l-1.029.817a3.879,3.879,0,0,1-.01.827l1.019.817a.239.239,0,0,1,.058.308l-.991,1.721a.234.234,0,0,1-.3.106l-1.23-.481a3.986,3.986,0,0,1-.712.4l-.192,1.307a.246.246,0,0,1-.24.2Zm-.432-4.8A1.442,1.442,0,1,0,17.3,12.017,1.44,1.44,0,0,0,15.864,13.46ZM1.923,15.382A1.928,1.928,0,0,1,0,13.46V1.923A1.929,1.929,0,0,1,1.923,0h17.3a1.928,1.928,0,0,1,1.923,1.923V6.73H19.228V1.923H1.923V13.46h8.653v1.923ZM7.691,3.846,13.46,7.691,7.691,11.537Z" transform="translate(0)" fill="#fff"/>
</svg>
