<svg xmlns="http://www.w3.org/2000/svg" width="20" height="20" viewBox="0 0 20 20">
  <path id="Menu_Management" data-name="Menu Management" d="M13,9.667h4.444a1.111,1.111,0,0,0,0-2.222H13a1.111,1.111,0,1,0,0,2.222Zm0,4.444h4.444a1.111,1.111,0,0,0,0-2.222H13a1.111,1.111,0,1,0,0,2.222Zm0,4.444h4.444a1.111,1.111,0,0,0,0-2.222H13a1.111,1.111,0,1,0,0,2.222ZM7.444,7.444H9.667V9.667H7.444Zm0,4.444H9.667v2.222H7.444Zm0,4.444H9.667v2.222H7.444ZM21.889,3H4.111A1.114,1.114,0,0,0,3,4.111V21.889A1.114,1.114,0,0,0,4.111,23H21.889A1.114,1.114,0,0,0,23,21.889V4.111A1.114,1.114,0,0,0,21.889,3ZM20.778,20.778H5.222V5.222H20.778Z" transform="translate(-3 -3)" fill="#fff"/>
</svg>
