<svg xmlns="http://www.w3.org/2000/svg" width="26.185" height="26.185" viewBox="0 0 26.185 26.185">
  <g id="Tags_Icon" data-name="Tags Icon" transform="translate(0 11.314) rotate(-45)">
    <g id="União_10" data-name="União 10" fill="none">
      <path d="M4,21.03a4,4,0,0,1-4-4V8.24a2.009,2.009,0,0,1,.038-.39,2.592,2.592,0,0,1,.8-1.9L5.979.831a2.92,2.92,0,0,1,4.081,0L15.2,5.95a2.583,2.583,0,0,1,.786,2.084A2.022,2.022,0,0,1,16,8.24v8.791a4,4,0,0,1-4,4Z" stroke="none"/>
      <path d="M 11.99969959259033 19.03030014038086 C 13.10277938842773 19.03030014038086 14.00019931793213 18.13327980041504 14.00019931793213 17.03069877624512 L 14.00008964538574 8.236979484558105 L 13.98081970214844 8.048190116882324 L 13.99739933013916 7.859149932861328 C 14.01325988769531 7.678239822387695 13.94848918914795 7.522219657897949 13.79295921325684 7.367579936981201 L 8.649099349975586 2.248919725418091 C 8.431099891662598 2.032149791717529 8.160539627075195 1.99977970123291 8.018659591674805 1.99977970123291 C 7.876959800720215 1.99977970123291 7.606799602508545 2.032069683074951 7.389309406280518 2.248499631881714 L 2.243919610977173 7.367799758911133 C 2.102689743041992 7.508289813995361 2.03529953956604 7.655269622802734 2.037879705429077 7.817119598388672 L 2.041229724884033 8.031290054321289 L 1.999999642372131 8.239500045776367 L 1.999999642372131 17.03069877624512 C 1.999999642372131 18.13327980041504 2.897019624710083 19.03030014038086 3.999599695205688 19.03030014038086 L 11.99969959259033 19.03030014038086 M 11.99969959259033 21.03030014038086 L 3.999599695205688 21.03030014038086 C 1.7909996509552 21.03030014038086 -3.604125993206253e-07 19.23929977416992 -3.604125993206253e-07 17.03069877624512 L -3.604125993206253e-07 8.239500045776367 C -3.604125993206253e-07 8.10590934753418 0.01313963998109102 7.975359916687012 0.03813964128494263 7.849099636077881 C 0.02754963934421539 7.186849594116211 0.2723296284675598 6.508049488067627 0.8333996534347534 5.949899673461914 L 5.978699684143066 0.8306997418403625 C 7.092000007629395 -0.2771999835968018 8.945098876953125 -0.2772005498409271 10.05929946899414 0.8306997418403625 L 15.20370006561279 5.949899673461914 C 15.8174295425415 6.56011962890625 16.0528392791748 7.314529895782471 15.98974990844727 8.033889770507812 C 15.99664974212646 8.101490020751953 16.00020027160645 8.170080184936523 16.00020027160645 8.239500045776367 L 16.00020027160645 17.03069877624512 C 16.00020027160645 19.23929977416992 14.20919990539551 21.03030014038086 11.99969959259033 21.03030014038086 Z" stroke="none" fill="#fff"/>
    </g>
    <circle id="Elipse_171" data-name="Elipse 171" cx="1.56" cy="1.56" r="1.56" transform="translate(6.555 5.64)" fill="#fff"/>
  </g>
</svg>
