<svg id="logo-icon" xmlns="http://www.w3.org/2000/svg" xmlns:xlink="http://www.w3.org/1999/xlink" width="90.848" height="105.842" viewBox="0 0 90.848 105.842">
  <defs>
    <linearGradient id="linear-gradient" x1="0.5" x2="0.5" y2="1" gradientUnits="objectBoundingBox">
      <stop offset="0" stop-color="#1178be"/>
      <stop offset="1" stop-color="#25a8e0"/>
    </linearGradient>
    <linearGradient id="linear-gradient-2" x1="0.181" y1="0.682" x2="0.822" y2="0.045" gradientUnits="objectBoundingBox">
      <stop offset="0" stop-color="#f28f16"/>
      <stop offset="1" stop-color="#f8a930"/>
    </linearGradient>
  </defs>
  <path id="Caminho_658" data-name="Caminho 658" d="M45.533,0a2.271,2.271,0,0,0,.4.268L58.274,5.06l15.208,5.905,11.774,4.588L90.3,17.515a1.581,1.581,0,0,1,.55.3c-.25.1-.5.2-.754.286q-2.848,1.017-5.7,2.021c-.286.1-.454.232-.363.563a2.538,2.538,0,0,1,.027.591q0,10.384,0,20.768c0,.55.023.881.645,1.14a2.612,2.612,0,0,1,1.64,2.725,2.932,2.932,0,0,1-1.881,2.621,2.83,2.83,0,0,1-1.685.173,3.148,3.148,0,0,1-2.271-2.7,2.925,2.925,0,0,1,2.04-3.043.527.527,0,0,0,.273-.377q0-10.616,0-21.227V20.7l-3.475,1.254c-2.108.759-4.215,1.522-6.332,2.271a.454.454,0,0,0-.372.518c0,1.395-.032,2.794-.055,4.188q-.077,4.2-.164,8.412c0,.027,0,.055-.059.127a56.78,56.78,0,0,0-26.609-6.741c-16.766,0-27.3,6.573-27.345,6.6s-.154.077-.3.145V24.733a.454.454,0,0,0-.372-.509q-7.354-2.657-14.7-5.328c-.94-.341-1.89-.654-2.83-.986-.05,0-.086-.068-.2-.168l.563-.213q7.917-3.093,15.83-6.173c2.8-1.095,5.6-2.167,8.394-3.257q4.872-1.928,9.734-3.829Q39.6,2.271,44.693.3a2.389,2.389,0,0,0,.454-.3Z" transform="translate(0)" fill="url(#linear-gradient)"/>
  <path id="Caminho_659" data-name="Caminho 659" d="M56.3,81.826c-.132.745-.254,1.472-.382,2.2q-.6,3.493-1.213,6.986c-.454,2.675-.949,5.346-1.413,8.022-.509,2.912-1,5.823-1.513,8.735-.182,1.045-.386,2.085-.559,3.13a.609.609,0,0,0,.118.454c2.553,2.535,5.115,5.056,7.754,7.658.64-.663,1.267-1.34,1.921-1.985,1.817-1.794,3.634-3.6,5.519-5.36a1.226,1.226,0,0,0,.372-1.236q-.631-3.72-1.222-7.445c-.391-2.453-.759-4.915-1.145-7.368-.341-2.158-.695-4.311-1.04-6.468-.377-2.376-.749-4.956-1.136-7.377a5.542,5.542,0,0,1,.727,0,67.682,67.682,0,0,1,16.353,3.847c1.2.427,2.38.908,3.557,1.363a.986.986,0,0,1,.491.454q2.589,6.423,5.151,12.859,2.112,5.278,4.22,10.557c.291.718.3.7-.345,1.186a117.647,117.647,0,0,0-9.085,7.5c-2.2,2.017-4.4,4.043-6.487,6.178-2.194,2.244-4.293,4.588-6.359,6.954a75.945,75.945,0,0,0-8.458,11.769c-1.09,1.885-2.017,3.866-3.021,5.8a1.84,1.84,0,0,1-.159.223c-.318-.64-.6-1.245-.908-1.817a83.686,83.686,0,0,0-6.3-10.093,114.812,114.812,0,0,0-10.17-12.169,120.98,120.98,0,0,0-10.479-9.766c-2.058-1.7-4.211-3.28-6.314-4.919a.327.327,0,0,1-.1-.277c.454-1.036.908-2.053,1.363-3.1,1.2-2.925,2.389-5.864,3.584-8.794l4.942-12.055a1.208,1.208,0,0,1,.5-.531,35.394,35.394,0,0,1,7.976-3.134c2.171-.559,4.365-1.072,6.577-1.413a45,45,0,0,1,6.427-.6,1.276,1.276,0,0,1,.259.032Z" transform="translate(-13.462 -44.624)" fill="url(#linear-gradient-2)"/>
</svg>
