<svg xmlns="http://www.w3.org/2000/svg" width="91.2" height="186.963" viewBox="0 0 91.2 186.963">
  <g id="Bee" transform="translate(-1134.802 -646.778)">
    <g id="Line">
      <path id="Line-2" data-name="Line" d="M58.544,67.257S31.5,80.561,20.666,55.874,47.027,3,50.631,16.439,13.512,26.97,27.982.905" transform="translate(1176.621 649.258) rotate(43)" fill="none" stroke="#ddd" stroke-width="2" stroke-dasharray="5 3"/>
    </g>
    <g id="bee-2" data-name="bee" transform="translate(1189.938 646.278)">
      <path id="Caminho_10042" data-name="Caminho 10042" d="M7.338,25.732a12.476,12.476,0,0,0,2.419-.245c.407-.081,1.27-.3,2.132-.576,1.662-.524,1.925-.786,2.052-.912a.766.766,0,0,0,.137-.9c-.1-.186-.184-.359-.267-.527a12.287,12.287,0,0,0-.613-1.126,9.577,9.577,0,0,0-1.536-1.912A9.69,9.69,0,0,0,8.884,17.5a9.505,9.505,0,0,0-3.979-.9A4.924,4.924,0,0,0,.4,18.752c-.744,1.312-.447,2.839.883,4.538a7.462,7.462,0,0,0,3.631,2.146,9.566,9.566,0,0,0,2.425.3Zm0,0" transform="translate(0 -15.279)" fill="#ccc" opacity="0.7"/>
      <path id="Caminho_10043" data-name="Caminho 10043" d="M305.12,8.027a.749.749,0,0,0,.122-.01A7.208,7.208,0,0,0,307.174,7,6.35,6.35,0,0,0,308.6,5.559a3.923,3.923,0,0,0,.505-3.9A2.007,2.007,0,0,0,307.284.5a3.07,3.07,0,0,0-1.664.567,4.317,4.317,0,0,0-1.8,3.306,5.372,5.372,0,0,0,.657,3.307A.766.766,0,0,0,305.12,8.027Zm0,0" transform="translate(-288.389)" fill="#bbb"/>
      <path id="Caminho_10044" data-name="Caminho 10044" d="M360.756,189.21a7.834,7.834,0,0,0-7-4.847,10.548,10.548,0,0,0,.328,7.326c1.085,2.826,3.086,5.077,5.155,5.883A7.866,7.866,0,0,0,360.756,189.21Zm0,0" transform="translate(-335.355 -174.612)" fill="#009bd5"/>
      <path id="Caminho_10045" data-name="Caminho 10045" d="M227.175,194.484a12.357,12.357,0,0,1-.558-7.754,7.878,7.878,0,0,0-1.608.474,12.427,12.427,0,0,0-3.993,3.066,16.139,16.139,0,0,0,1.124,6.062,15.822,15.822,0,0,0,3.924,5.952c.339.014.67.023.989.023a10.747,10.747,0,0,0,3.969-.586,7.844,7.844,0,0,0,1.466-.8A12.082,12.082,0,0,1,227.175,194.484Zm0,0" transform="translate(-209.871 -176.858)" fill="#00161f"/>
      <path id="Caminho_10046" data-name="Caminho 10046" d="M130.954,290.383q-.189.25-.374.509c-1.835,2.563-2.931,5.092-2.931,6.765,0,.735.762,1.148,1.425,1.426a16.517,16.517,0,0,0,2.553.77,33.31,33.31,0,0,0,3.546.606,18.109,18.109,0,0,1-3.06-5.217A18.372,18.372,0,0,1,130.954,290.383Zm0,0" transform="translate(-121.181 -275.218)" fill="#009bd5"/>
    </g>
    <g id="Plus">
      <line id="Linha_225" data-name="Linha 225" y2="5" transform="translate(1220.5 684.5)" fill="none" stroke="#707070" stroke-linecap="round" stroke-width="2"/>
      <line id="Linha_226" data-name="Linha 226" y2="5" transform="translate(1223 687) rotate(90)" fill="none" stroke="#707070" stroke-linecap="round" stroke-width="2"/>
    </g>
    <g id="Elipse_136" data-name="Elipse 136" transform="translate(1210 700)" fill="#fff" stroke="#707070" stroke-width="1">
      <circle cx="1" cy="1" r="1" stroke="none"/>
      <circle cx="1" cy="1" r="0.5" fill="none"/>
    </g>
    <g id="Elipse_137" data-name="Elipse 137" transform="translate(1171 668)" fill="none" stroke="#707070" stroke-width="1">
      <circle cx="2" cy="2" r="2" stroke="none"/>
      <circle cx="2" cy="2" r="1.5" fill="none"/>
    </g>
    <g id="Grupo_129" data-name="Grupo 129" transform="translate(1135.402 739.433)">
      <path id="Caminho_1062" data-name="Caminho 1062" d="M158.822,247.811a.96.96,0,0,0,1.639-.679V179.741a6.274,6.274,0,0,0-6.274-6.274H84.769a6.275,6.275,0,0,0-6.274,6.274v5.344h-2.37a5.642,5.642,0,0,0-5.663,5.633A5.545,5.545,0,0,0,76,196.161h2.5v8.317H76.125a5.643,5.643,0,0,0-5.664,5.633A5.545,5.545,0,0,0,76,215.556h2.5v8.317H76.125a5.642,5.642,0,0,0-5.664,5.633A5.545,5.545,0,0,0,76,234.949h2.5v8.317H76.125a5.643,5.643,0,0,0-5.664,5.633A5.544,5.544,0,0,0,76,254.343h2.5V260.9a6.274,6.274,0,0,0,6.274,6.274h69.417a6.274,6.274,0,0,0,6.274-6.274V242.346" transform="translate(-70.461 -173.187)" fill="#f9f9f9"/>
      <rect id="Retângulo_1783" data-name="Retângulo 1783" width="30.443" height="36.531" transform="translate(42.62 22.675)" fill="#fff"/>
      <path id="Caminho_1063" data-name="Caminho 1063" d="M165.92,281.023H133.642a1.64,1.64,0,1,0,0,3.279H165.92a1.64,1.64,0,0,0,0-3.279Z" transform="translate(-92.479 -211.669)" fill="#e2e2e2" stroke="#e2e2e2" stroke-miterlimit="10" stroke-width="1.2"/>
      <path id="Caminho_1064" data-name="Caminho 1064" d="M167.559,212.058a6.191,6.191,0,0,0-6.184-6.184H138.186A6.191,6.191,0,0,0,132,212.058v11.207a1.64,1.64,0,1,0,3.279,0V212.058a2.908,2.908,0,0,1,2.905-2.905h23.188a2.909,2.909,0,0,1,2.905,2.905v24.078a18.513,18.513,0,0,0-7.383-5.528,8.879,8.879,0,1,0-14.233,0,18.512,18.512,0,0,0-7.383,5.528V221.151a1.639,1.639,0,1,0-3.278,0v19.661A6.191,6.191,0,0,0,138.186,247h23.188a6.192,6.192,0,0,0,6.184-6.184V212.058ZM149.78,219.7a5.6,5.6,0,1,1-5.6,5.6A5.607,5.607,0,0,1,149.78,219.7Zm11.594,24.012H138.186a2.905,2.905,0,0,1-2.617-1.651,15.272,15.272,0,0,1,9.937-8.981,8.858,8.858,0,0,0,8.548,0,15.27,15.27,0,0,1,9.936,8.981A2.905,2.905,0,0,1,161.374,243.716Z" transform="translate(-92.479 -184.782)" fill="#e2e2e2" stroke="#e2e2e2" stroke-miterlimit="10" stroke-width="1.2"/>
      <path id="Caminho_1065" data-name="Caminho 1065" d="M78.494,260.465a6.274,6.274,0,0,0,6.274,6.274h69.417a6.274,6.274,0,0,0,6.274-6.274V241.91c-1.447-1.645-3.278-.642-3.278.789v17.767a3,3,0,0,1-3,3h-55.7V176.31h55.7a3,3,0,0,1,3,3v66.43a1.64,1.64,0,0,0,1.64,1.64h0a.96.96,0,0,0,1.639-.679V179.305a6.274,6.274,0,0,0-6.274-6.274H84.769a6.274,6.274,0,0,0-6.274,6.274v5.344h-2.37a5.642,5.642,0,0,0-5.663,5.633A5.545,5.545,0,0,0,76,195.726h2.5v8.317H76.125a5.642,5.642,0,0,0-5.664,5.633A5.544,5.544,0,0,0,76,215.119h2.5v8.317H76.125a5.643,5.643,0,0,0-5.664,5.633A5.545,5.545,0,0,0,76,234.513h2.5v8.317H76.125a5.642,5.642,0,0,0-5.664,5.633A5.545,5.545,0,0,0,76,253.907h2.5ZM76,192.446a2.259,2.259,0,0,1,0-4.518h8.27a2.259,2.259,0,1,1,0,4.518Zm0,19.394a2.259,2.259,0,0,1,0-4.519h8.27a2.259,2.259,0,1,1,0,4.519Zm0,19.394a2.259,2.259,0,0,1,0-4.519h8.27a2.259,2.259,0,1,1,0,4.519Zm0,19.394a2.259,2.259,0,0,1,0-4.518h8.27a2.259,2.259,0,1,1,0,4.518Zm5.775,3.279h2.5a5.538,5.538,0,0,0,0-11.076h-2.5v-8.317h2.5a5.538,5.538,0,0,0,0-11.077h-2.5V215.12h2.5a5.538,5.538,0,0,0,0-11.076h-2.5v-8.317h2.5a5.538,5.538,0,0,0,0-11.076h-2.5v-5.345a3,3,0,0,1,3-3H95.207v87.151H84.769a3,3,0,0,1-3-3Z" transform="translate(-70.461 -173.031)" fill="#e2e2e2" stroke="#e2e2e2" stroke-miterlimit="10" stroke-width="1.2"/>
      <path id="Caminho_10134" data-name="Caminho 10134" d="M85.66,255.034h2.5a5.538,5.538,0,0,0,0-11.076h-2.5V235.64h2.5a5.538,5.538,0,0,0,0-11.077h-2.5v-8.317h2.5a5.538,5.538,0,0,0,0-11.076h-2.5v-8.317h2.5a5.538,5.538,0,0,0,0-11.076h-2.5v-5.345a3,3,0,0,1,3-3H99.093v87.151H88.655a3,3,0,0,1-3-3Z" transform="translate(-74.347 -174.158)" fill="#fff"/>
    </g>
  </g>
</svg>
