<svg width="610" height="72" viewBox="0 0 610 72" fill="none" xmlns="http://www.w3.org/2000/svg">
<g clip-path="url(#clip0_211_61)">
<rect width="610" height="72.4296" fill="#00161F"/>
<g opacity="0.35">
<path opacity="0.35" d="M565.111 27.7736H534.658C533.461 27.7736 532.491 28.7496 532.491 29.9535V43.1337C532.491 44.3377 533.461 45.3136 534.658 45.3136H565.111C566.308 45.3136 567.278 44.3377 567.278 43.1337V29.9535C567.278 28.7496 566.308 27.7736 565.111 27.7736Z" stroke="white" stroke-miterlimit="10"/>
</g>
<path opacity="0.4" d="M569.404 33.2702V39.816C570.044 39.5448 570.591 39.0895 570.975 38.5072C571.359 37.9249 571.564 37.2415 571.564 36.5426C571.564 35.8439 571.359 35.1607 570.975 34.5786C570.59 33.9965 570.044 33.5414 569.404 33.2702" fill="white"/>
<path d="M563.191 30.543H536.577C535.841 30.543 535.244 31.1434 535.244 31.884V41.2022C535.244 41.9428 535.841 42.5432 536.577 42.5432H563.191C563.927 42.5432 564.524 41.9428 564.524 41.2022V31.884C564.524 31.1434 563.927 30.543 563.191 30.543Z" fill="white"/>
<path d="M511.387 45.2653C511.32 45.2653 511.253 45.2518 511.191 45.2258C511.129 45.1997 511.072 45.1615 511.025 45.1134L507.762 41.8038C507.712 41.7549 507.672 41.696 507.646 41.6309C507.62 41.5657 507.608 41.4958 507.61 41.4255C507.611 41.3554 507.627 41.2864 507.656 41.2225C507.685 41.1587 507.726 41.1015 507.778 41.0543C508.787 40.1962 510.066 39.7253 511.387 39.7253C512.708 39.7253 513.987 40.1962 514.996 41.0543C515.048 41.1014 515.089 41.1587 515.118 41.2226C515.147 41.2865 515.163 41.3556 515.164 41.4258C515.166 41.496 515.153 41.5657 515.126 41.6307C515.1 41.6957 515.061 41.7546 515.011 41.8038L511.749 45.1134C511.701 45.1615 511.645 45.1997 511.583 45.2258C511.521 45.2518 511.454 45.2653 511.387 45.2653ZM517.115 39.4579C516.985 39.4579 516.86 39.4079 516.765 39.318C515.291 37.9768 513.374 37.2342 511.387 37.2342C509.399 37.2342 507.483 37.9768 506.009 39.318C505.914 39.4079 505.789 39.4579 505.659 39.4579C505.593 39.4581 505.527 39.4451 505.466 39.4195C505.404 39.394 505.349 39.3564 505.302 39.309L503.415 37.3936C503.366 37.3442 503.326 37.2853 503.3 37.2204C503.274 37.1555 503.26 37.086 503.261 37.0159C503.262 36.9458 503.276 36.8766 503.304 36.8122C503.331 36.7478 503.372 36.6897 503.422 36.6412C505.586 34.6184 508.431 33.4941 511.385 33.4941C514.34 33.4941 517.185 34.6184 519.349 36.6412C519.399 36.6898 519.439 36.748 519.467 36.8125C519.495 36.8769 519.509 36.9462 519.51 37.0164C519.511 37.0864 519.497 37.1559 519.471 37.2208C519.445 37.2856 519.405 37.3444 519.356 37.3936L517.47 39.305C517.424 39.3529 517.369 39.391 517.308 39.4173C517.247 39.4435 517.181 39.4573 517.115 39.4579ZM521.457 35.0517C521.326 35.0517 521.2 35.0001 521.107 34.9079C518.483 32.4013 515.002 31.0038 511.384 31.0038C507.765 31.0038 504.285 32.4013 501.661 34.9079C501.566 35.0014 501.439 35.0533 501.306 35.0521C501.174 35.051 501.047 34.9969 500.954 34.9018L499.067 32.9875C499.018 32.9384 498.979 32.8801 498.953 32.8159C498.926 32.7517 498.912 32.6828 498.912 32.6133C498.912 32.5437 498.926 32.4749 498.953 32.4107C498.979 32.3464 499.018 32.2881 499.067 32.2391C502.381 29.0471 506.793 27.2654 511.381 27.2654C515.97 27.2654 520.381 29.0471 523.696 32.2391C523.745 32.2881 523.784 32.3464 523.81 32.4107C523.837 32.4749 523.85 32.5437 523.85 32.6133C523.85 32.6828 523.837 32.7517 523.81 32.8159C523.784 32.8801 523.745 32.9384 523.696 32.9875L521.815 34.9018C521.768 34.9493 521.713 34.987 521.652 35.0127C521.591 35.0385 521.525 35.0517 521.459 35.0517H521.457Z" fill="white"/>
<path d="M489.156 45.2704H487.529C487.097 45.2701 486.684 45.0976 486.379 44.7907C486.074 44.4838 485.902 44.0677 485.902 43.6337V29.4526C485.902 29.0186 486.074 28.6024 486.379 28.2955C486.684 27.9886 487.097 27.8161 487.529 27.8159H489.156C489.587 27.8161 490.001 27.9886 490.306 28.2955C490.611 28.6024 490.783 29.0186 490.783 29.4526V43.6367C490.782 44.0702 490.61 44.4855 490.305 44.7918C490 45.098 489.587 45.2701 489.156 45.2704V45.2704ZM481.565 45.2704H479.937C479.505 45.2701 479.092 45.0976 478.787 44.7907C478.482 44.4838 478.31 44.0677 478.31 43.6337V33.2712C478.311 32.8379 478.483 32.4228 478.788 32.1168C479.093 31.8108 479.506 31.6388 479.937 31.6385H481.565C481.996 31.6388 482.41 31.8113 482.715 32.1182C483.02 32.4251 483.192 32.8412 483.192 33.2752V43.6367C483.191 44.0702 483.019 44.4855 482.714 44.7918C482.409 45.098 481.996 45.2701 481.565 45.2704V45.2704ZM473.973 45.2704H472.346C471.914 45.2701 471.501 45.0976 471.196 44.7907C470.891 44.4838 470.719 44.0677 470.719 43.6337V37.0878C470.719 36.654 470.891 36.2381 471.196 35.9315C471.501 35.6248 471.915 35.4524 472.346 35.4521H473.973C474.404 35.4524 474.818 35.6249 475.123 35.9318C475.429 36.2386 475.6 36.6548 475.601 37.0888V43.6347C475.6 44.0686 475.428 44.4845 475.123 44.7911C474.818 45.0977 474.404 45.2701 473.973 45.2704V45.2704ZM466.382 45.2704H464.756C464.325 45.2701 463.911 45.0977 463.606 44.791C463.301 44.4844 463.129 44.0685 463.129 43.6347V40.3623C463.129 39.9282 463.301 39.5119 463.606 39.2049C463.911 38.8978 464.324 38.7251 464.756 38.7245H466.382C466.813 38.7251 467.227 38.8978 467.532 39.2049C467.837 39.5119 468.009 39.9282 468.009 40.3623V43.6347C468.008 44.0685 467.837 44.4844 467.532 44.791C467.227 45.0977 466.813 45.2701 466.382 45.2704V45.2704Z" fill="white"/>
<path d="M45.2938 45.1446C49.6658 45.1446 52.2638 41.7052 52.2638 35.8686C52.2638 30.1396 49.4998 27 45.3898 27C41.6488 27 39.0038 29.529 39.0038 33.065C38.9757 33.8221 39.1025 34.577 39.3763 35.2829C39.6501 35.9887 40.0651 36.6305 40.5955 37.1683C41.126 37.7062 41.7606 38.1288 42.4601 38.4098C43.1596 38.6908 43.909 38.8243 44.6618 38.802C45.5722 38.8485 46.4766 38.6301 47.2669 38.173C48.0571 37.716 48.6997 37.0396 49.1178 36.2247H49.3178C49.2818 40.2878 47.8408 42.6126 45.3268 42.6126C44.6574 42.6509 43.9947 42.4612 43.4457 42.0741C42.8967 41.687 42.4933 41.125 42.3008 40.4789H39.2408C39.7418 43.2997 42.1478 45.1446 45.2938 45.1446ZM45.4008 36.4199C44.9472 36.4391 44.4946 36.3626 44.0722 36.1953C43.6497 36.0279 43.2668 35.7735 42.948 35.4483C42.6293 35.123 42.3817 34.7343 42.2213 34.307C42.061 33.8797 41.9913 33.4234 42.0168 32.9674C41.9975 32.504 42.0721 32.0416 42.236 31.6081C42.4 31.1747 42.6498 30.7793 42.9703 30.446C43.2909 30.1127 43.6755 29.8485 44.1007 29.6694C44.5259 29.4903 44.9829 29.4 45.4439 29.4041C45.9049 29.4082 46.3602 29.5066 46.7822 29.6932C47.2043 29.8799 47.5841 30.1509 47.8988 30.4898C48.2134 30.8288 48.4563 31.2285 48.6125 31.6648C48.7688 32.1011 48.8353 32.5648 48.8078 33.0277C48.8223 33.4801 48.7438 33.9307 48.5772 34.3511C48.4106 34.7716 48.1596 35.1529 47.8398 35.4713C47.52 35.7897 47.1383 36.0383 46.7187 36.2015C46.299 36.3647 45.8504 36.4391 45.4008 36.4199V36.4199ZM57.1718 33.5317C57.4208 33.5457 57.6699 33.5077 57.9035 33.42C58.1371 33.3324 58.3501 33.197 58.5292 33.0225C58.7082 32.8479 58.8494 32.638 58.9438 32.4059C59.0383 32.1737 59.0839 31.9245 59.0778 31.6737C59.0664 31.1727 58.8606 30.696 58.5043 30.3457C58.148 29.9954 57.6695 29.7993 57.1713 29.7993C56.6731 29.7993 56.1947 29.9954 55.8384 30.3457C55.4821 30.696 55.2762 31.1727 55.2648 31.6737C55.2597 31.9243 55.3059 32.1733 55.4007 32.405C55.4955 32.6368 55.6368 32.8464 55.8158 33.0208C55.9948 33.1952 56.2076 33.3305 56.4409 33.4185C56.6742 33.5064 56.923 33.5449 57.1718 33.5317V33.5317ZM57.1718 42.3289C57.5347 42.3174 57.8862 42.1987 58.1824 41.9876C58.4785 41.7764 58.7064 41.4822 58.8373 41.1416C58.9683 40.801 58.9967 40.4291 58.9189 40.0724C58.8411 39.7157 58.6606 39.3899 58.3999 39.1358C58.1392 38.8816 57.8098 38.7104 57.4529 38.6433C57.0961 38.5763 56.7275 38.6165 56.3932 38.7589C56.0589 38.9014 55.7737 39.1397 55.5732 39.4441C55.3727 39.7486 55.2658 40.1057 55.2658 40.4709C55.2607 40.7214 55.3069 40.9702 55.4017 41.202C55.4964 41.4337 55.6376 41.6432 55.8165 41.8176C55.9953 41.9919 56.208 42.1273 56.4412 42.2153C56.6744 42.3033 56.9231 42.342 57.1718 42.3289V42.3289ZM70.4718 44.7261H73.4148V41.4064H75.7358V38.8523H73.4118V27.4346H69.0748C66.7358 31.0027 64.2968 34.9793 62.0688 38.8764V41.4054H70.4688L70.4718 44.7261ZM64.9198 38.7457C66.5998 35.8092 68.5898 32.6093 70.3528 29.9002H70.5198V38.9247H64.9198V38.7457ZM82.2908 44.7261H85.3648V27.4346H82.2998L77.8078 30.6074V33.5247L82.0858 30.4756H82.2858L82.2908 44.7261Z" fill="white"/>
</g>
<defs>
<clipPath id="clip0_211_61">
<rect width="610" height="72" fill="white"/>
</clipPath>
</defs>
</svg>
