<svg xmlns="http://www.w3.org/2000/svg" xmlns:xlink="http://www.w3.org/1999/xlink" width="614.526" height="348.206" viewBox="0 0 614.526 348.206">
  <defs>
    <clipPath id="clip-path">
      <rect width="614.526" height="33.006" fill="none"/>
    </clipPath>
    <clipPath id="clip-path-3">
      <rect width="33.787" height="348.206" fill="none"/>
    </clipPath>
  </defs>
  <g id="Grupo_10899" data-name="Grupo 10899" transform="translate(-1077.606 -354.999)">
    <g id="Grupo_10898" data-name="Grupo 10898">
      <rect id="Retângulo_1873" data-name="Retângulo 1873" width="605.739" height="344.987" transform="translate(1079 356)" fill="#404040"/>
      <g id="Grupo_3" data-name="Grupo 3" transform="translate(1077.606 354.999)" opacity="0.3">
        <g id="Repetição_de_grade_2" data-name="Repetição de grade 2" clip-path="url(#clip-path)">
          <g transform="translate(-1077.213 -370.794)">
            <rect id="Retângulo_1876" data-name="Retângulo 1876" width="36" height="12" rx="6" transform="matrix(0.695, -0.719, 0.719, 0.695, 1077.784, 396.077)" fill="#fff"/>
          </g>
          <g transform="translate(-1043.213 -370.794)">
            <rect id="Retângulo_1876-2" data-name="Retângulo 1876" width="36" height="12" rx="6" transform="matrix(0.695, -0.719, 0.719, 0.695, 1077.784, 396.077)" fill="#fff"/>
          </g>
          <g transform="translate(-1009.213 -370.794)">
            <rect id="Retângulo_1876-3" data-name="Retângulo 1876" width="36" height="12" rx="6" transform="matrix(0.695, -0.719, 0.719, 0.695, 1077.784, 396.077)" fill="#fff"/>
          </g>
          <g transform="translate(-975.213 -370.794)">
            <rect id="Retângulo_1876-4" data-name="Retângulo 1876" width="36" height="12" rx="6" transform="matrix(0.695, -0.719, 0.719, 0.695, 1077.784, 396.077)" fill="#fff"/>
          </g>
          <g transform="translate(-941.213 -370.794)">
            <rect id="Retângulo_1876-5" data-name="Retângulo 1876" width="36" height="12" rx="6" transform="matrix(0.695, -0.719, 0.719, 0.695, 1077.784, 396.077)" fill="#fff"/>
          </g>
          <g transform="translate(-907.213 -370.794)">
            <rect id="Retângulo_1876-6" data-name="Retângulo 1876" width="36" height="12" rx="6" transform="matrix(0.695, -0.719, 0.719, 0.695, 1077.784, 396.077)" fill="#fff"/>
          </g>
          <g transform="translate(-873.213 -370.794)">
            <rect id="Retângulo_1876-7" data-name="Retângulo 1876" width="36" height="12" rx="6" transform="matrix(0.695, -0.719, 0.719, 0.695, 1077.784, 396.077)" fill="#fff"/>
          </g>
          <g transform="translate(-839.213 -370.794)">
            <rect id="Retângulo_1876-8" data-name="Retângulo 1876" width="36" height="12" rx="6" transform="matrix(0.695, -0.719, 0.719, 0.695, 1077.784, 396.077)" fill="#fff"/>
          </g>
          <g transform="translate(-805.213 -370.794)">
            <rect id="Retângulo_1876-9" data-name="Retângulo 1876" width="36" height="12" rx="6" transform="matrix(0.695, -0.719, 0.719, 0.695, 1077.784, 396.077)" fill="#fff"/>
          </g>
          <g transform="translate(-771.213 -370.794)">
            <rect id="Retângulo_1876-10" data-name="Retângulo 1876" width="36" height="12" rx="6" transform="matrix(0.695, -0.719, 0.719, 0.695, 1077.784, 396.077)" fill="#fff"/>
          </g>
          <g transform="translate(-737.213 -370.794)">
            <rect id="Retângulo_1876-11" data-name="Retângulo 1876" width="36" height="12" rx="6" transform="matrix(0.695, -0.719, 0.719, 0.695, 1077.784, 396.077)" fill="#fff"/>
          </g>
          <g transform="translate(-703.213 -370.794)">
            <rect id="Retângulo_1876-12" data-name="Retângulo 1876" width="36" height="12" rx="6" transform="matrix(0.695, -0.719, 0.719, 0.695, 1077.784, 396.077)" fill="#fff"/>
          </g>
          <g transform="translate(-669.213 -370.794)">
            <rect id="Retângulo_1876-13" data-name="Retângulo 1876" width="36" height="12" rx="6" transform="matrix(0.695, -0.719, 0.719, 0.695, 1077.784, 396.077)" fill="#fff"/>
          </g>
          <g transform="translate(-635.213 -370.794)">
            <rect id="Retângulo_1876-14" data-name="Retângulo 1876" width="36" height="12" rx="6" transform="matrix(0.695, -0.719, 0.719, 0.695, 1077.784, 396.077)" fill="#fff"/>
          </g>
          <g transform="translate(-601.213 -370.794)">
            <rect id="Retângulo_1876-15" data-name="Retângulo 1876" width="36" height="12" rx="6" transform="matrix(0.695, -0.719, 0.719, 0.695, 1077.784, 396.077)" fill="#fff"/>
          </g>
          <g transform="translate(-567.213 -370.794)">
            <rect id="Retângulo_1876-16" data-name="Retângulo 1876" width="36" height="12" rx="6" transform="matrix(0.695, -0.719, 0.719, 0.695, 1077.784, 396.077)" fill="#fff"/>
          </g>
          <g transform="translate(-533.213 -370.794)">
            <rect id="Retângulo_1876-17" data-name="Retângulo 1876" width="36" height="12" rx="6" transform="matrix(0.695, -0.719, 0.719, 0.695, 1077.784, 396.077)" fill="#fff"/>
          </g>
          <g transform="translate(-499.213 -370.794)">
            <rect id="Retângulo_1876-18" data-name="Retângulo 1876" width="36" height="12" rx="6" transform="matrix(0.695, -0.719, 0.719, 0.695, 1077.784, 396.077)" fill="#fff"/>
          </g>
          <g transform="translate(-465.213 -370.794)">
            <rect id="Retângulo_1876-19" data-name="Retângulo 1876" width="36" height="12" rx="6" transform="matrix(0.695, -0.719, 0.719, 0.695, 1077.784, 396.077)" fill="#fff"/>
          </g>
        </g>
        <g id="Repetição_de_grade_4" data-name="Repetição de grade 4" transform="translate(0 315.199)" clip-path="url(#clip-path)">
          <g transform="translate(-1077.213 -370.794)">
            <rect id="Retângulo_1876-20" data-name="Retângulo 1876" width="36" height="12" rx="6" transform="matrix(0.695, -0.719, 0.719, 0.695, 1077.784, 396.077)" fill="#fff"/>
          </g>
          <g transform="translate(-1043.213 -370.794)">
            <rect id="Retângulo_1876-21" data-name="Retângulo 1876" width="36" height="12" rx="6" transform="matrix(0.695, -0.719, 0.719, 0.695, 1077.784, 396.077)" fill="#fff"/>
          </g>
          <g transform="translate(-1009.213 -370.794)">
            <rect id="Retângulo_1876-22" data-name="Retângulo 1876" width="36" height="12" rx="6" transform="matrix(0.695, -0.719, 0.719, 0.695, 1077.784, 396.077)" fill="#fff"/>
          </g>
          <g transform="translate(-975.213 -370.794)">
            <rect id="Retângulo_1876-23" data-name="Retângulo 1876" width="36" height="12" rx="6" transform="matrix(0.695, -0.719, 0.719, 0.695, 1077.784, 396.077)" fill="#fff"/>
          </g>
          <g transform="translate(-941.213 -370.794)">
            <rect id="Retângulo_1876-24" data-name="Retângulo 1876" width="36" height="12" rx="6" transform="matrix(0.695, -0.719, 0.719, 0.695, 1077.784, 396.077)" fill="#fff"/>
          </g>
          <g transform="translate(-907.213 -370.794)">
            <rect id="Retângulo_1876-25" data-name="Retângulo 1876" width="36" height="12" rx="6" transform="matrix(0.695, -0.719, 0.719, 0.695, 1077.784, 396.077)" fill="#fff"/>
          </g>
          <g transform="translate(-873.213 -370.794)">
            <rect id="Retângulo_1876-26" data-name="Retângulo 1876" width="36" height="12" rx="6" transform="matrix(0.695, -0.719, 0.719, 0.695, 1077.784, 396.077)" fill="#fff"/>
          </g>
          <g transform="translate(-839.213 -370.794)">
            <rect id="Retângulo_1876-27" data-name="Retângulo 1876" width="36" height="12" rx="6" transform="matrix(0.695, -0.719, 0.719, 0.695, 1077.784, 396.077)" fill="#fff"/>
          </g>
          <g transform="translate(-805.213 -370.794)">
            <rect id="Retângulo_1876-28" data-name="Retângulo 1876" width="36" height="12" rx="6" transform="matrix(0.695, -0.719, 0.719, 0.695, 1077.784, 396.077)" fill="#fff"/>
          </g>
          <g transform="translate(-771.213 -370.794)">
            <rect id="Retângulo_1876-29" data-name="Retângulo 1876" width="36" height="12" rx="6" transform="matrix(0.695, -0.719, 0.719, 0.695, 1077.784, 396.077)" fill="#fff"/>
          </g>
          <g transform="translate(-737.213 -370.794)">
            <rect id="Retângulo_1876-30" data-name="Retângulo 1876" width="36" height="12" rx="6" transform="matrix(0.695, -0.719, 0.719, 0.695, 1077.784, 396.077)" fill="#fff"/>
          </g>
          <g transform="translate(-703.213 -370.794)">
            <rect id="Retângulo_1876-31" data-name="Retângulo 1876" width="36" height="12" rx="6" transform="matrix(0.695, -0.719, 0.719, 0.695, 1077.784, 396.077)" fill="#fff"/>
          </g>
          <g transform="translate(-669.213 -370.794)">
            <rect id="Retângulo_1876-32" data-name="Retângulo 1876" width="36" height="12" rx="6" transform="matrix(0.695, -0.719, 0.719, 0.695, 1077.784, 396.077)" fill="#fff"/>
          </g>
          <g transform="translate(-635.213 -370.794)">
            <rect id="Retângulo_1876-33" data-name="Retângulo 1876" width="36" height="12" rx="6" transform="matrix(0.695, -0.719, 0.719, 0.695, 1077.784, 396.077)" fill="#fff"/>
          </g>
          <g transform="translate(-601.213 -370.794)">
            <rect id="Retângulo_1876-34" data-name="Retângulo 1876" width="36" height="12" rx="6" transform="matrix(0.695, -0.719, 0.719, 0.695, 1077.784, 396.077)" fill="#fff"/>
          </g>
          <g transform="translate(-567.213 -370.794)">
            <rect id="Retângulo_1876-35" data-name="Retângulo 1876" width="36" height="12" rx="6" transform="matrix(0.695, -0.719, 0.719, 0.695, 1077.784, 396.077)" fill="#fff"/>
          </g>
          <g transform="translate(-533.213 -370.794)">
            <rect id="Retângulo_1876-36" data-name="Retângulo 1876" width="36" height="12" rx="6" transform="matrix(0.695, -0.719, 0.719, 0.695, 1077.784, 396.077)" fill="#fff"/>
          </g>
          <g transform="translate(-499.213 -370.794)">
            <rect id="Retângulo_1876-37" data-name="Retângulo 1876" width="36" height="12" rx="6" transform="matrix(0.695, -0.719, 0.719, 0.695, 1077.784, 396.077)" fill="#fff"/>
          </g>
          <g transform="translate(-465.213 -370.794)">
            <rect id="Retângulo_1876-38" data-name="Retângulo 1876" width="36" height="12" rx="6" transform="matrix(0.695, -0.719, 0.719, 0.695, 1077.784, 396.077)" fill="#fff"/>
          </g>
        </g>
        <g id="Repetição_de_grade_3" data-name="Repetição de grade 3" clip-path="url(#clip-path-3)">
          <g transform="translate(-1077.213 -370.794)">
            <rect id="Retângulo_1876-39" data-name="Retângulo 1876" width="36" height="12" rx="6" transform="matrix(0.695, -0.719, 0.719, 0.695, 1077.784, 396.077)" fill="#fff"/>
          </g>
          <g transform="translate(-1077.213 -335.794)">
            <rect id="Retângulo_1876-40" data-name="Retângulo 1876" width="36" height="12" rx="6" transform="matrix(0.695, -0.719, 0.719, 0.695, 1077.784, 396.077)" fill="#fff"/>
          </g>
          <g transform="translate(-1077.213 -300.794)">
            <rect id="Retângulo_1876-41" data-name="Retângulo 1876" width="36" height="12" rx="6" transform="matrix(0.695, -0.719, 0.719, 0.695, 1077.784, 396.077)" fill="#fff"/>
          </g>
          <g transform="translate(-1077.213 -265.794)">
            <rect id="Retângulo_1876-42" data-name="Retângulo 1876" width="36" height="12" rx="6" transform="matrix(0.695, -0.719, 0.719, 0.695, 1077.784, 396.077)" fill="#fff"/>
          </g>
          <g transform="translate(-1077.213 -230.794)">
            <rect id="Retângulo_1876-43" data-name="Retângulo 1876" width="36" height="12" rx="6" transform="matrix(0.695, -0.719, 0.719, 0.695, 1077.784, 396.077)" fill="#fff"/>
          </g>
          <g transform="translate(-1077.213 -195.794)">
            <rect id="Retângulo_1876-44" data-name="Retângulo 1876" width="36" height="12" rx="6" transform="matrix(0.695, -0.719, 0.719, 0.695, 1077.784, 396.077)" fill="#fff"/>
          </g>
          <g transform="translate(-1077.213 -160.794)">
            <rect id="Retângulo_1876-45" data-name="Retângulo 1876" width="36" height="12" rx="6" transform="matrix(0.695, -0.719, 0.719, 0.695, 1077.784, 396.077)" fill="#fff"/>
          </g>
          <g transform="translate(-1077.213 -125.794)">
            <rect id="Retângulo_1876-46" data-name="Retângulo 1876" width="36" height="12" rx="6" transform="matrix(0.695, -0.719, 0.719, 0.695, 1077.784, 396.077)" fill="#fff"/>
          </g>
          <g transform="translate(-1077.213 -90.794)">
            <rect id="Retângulo_1876-47" data-name="Retângulo 1876" width="36" height="12" rx="6" transform="matrix(0.695, -0.719, 0.719, 0.695, 1077.784, 396.077)" fill="#fff"/>
          </g>
          <g transform="translate(-1077.213 -55.794)">
            <rect id="Retângulo_1876-48" data-name="Retângulo 1876" width="36" height="12" rx="6" transform="matrix(0.695, -0.719, 0.719, 0.695, 1077.784, 396.077)" fill="#fff"/>
          </g>
        </g>
        <g id="Repetição_de_grade_5" data-name="Repetição de grade 5" transform="translate(574.345)" clip-path="url(#clip-path-3)">
          <g transform="translate(-1077.213 -370.794)">
            <rect id="Retângulo_1876-49" data-name="Retângulo 1876" width="36" height="12" rx="6" transform="matrix(0.695, -0.719, 0.719, 0.695, 1077.784, 396.077)" fill="#fff"/>
          </g>
          <g transform="translate(-1077.213 -335.794)">
            <rect id="Retângulo_1876-50" data-name="Retângulo 1876" width="36" height="12" rx="6" transform="matrix(0.695, -0.719, 0.719, 0.695, 1077.784, 396.077)" fill="#fff"/>
          </g>
          <g transform="translate(-1077.213 -300.794)">
            <rect id="Retângulo_1876-51" data-name="Retângulo 1876" width="36" height="12" rx="6" transform="matrix(0.695, -0.719, 0.719, 0.695, 1077.784, 396.077)" fill="#fff"/>
          </g>
          <g transform="translate(-1077.213 -265.794)">
            <rect id="Retângulo_1876-52" data-name="Retângulo 1876" width="36" height="12" rx="6" transform="matrix(0.695, -0.719, 0.719, 0.695, 1077.784, 396.077)" fill="#fff"/>
          </g>
          <g transform="translate(-1077.213 -230.794)">
            <rect id="Retângulo_1876-53" data-name="Retângulo 1876" width="36" height="12" rx="6" transform="matrix(0.695, -0.719, 0.719, 0.695, 1077.784, 396.077)" fill="#fff"/>
          </g>
          <g transform="translate(-1077.213 -195.794)">
            <rect id="Retângulo_1876-54" data-name="Retângulo 1876" width="36" height="12" rx="6" transform="matrix(0.695, -0.719, 0.719, 0.695, 1077.784, 396.077)" fill="#fff"/>
          </g>
          <g transform="translate(-1077.213 -160.794)">
            <rect id="Retângulo_1876-55" data-name="Retângulo 1876" width="36" height="12" rx="6" transform="matrix(0.695, -0.719, 0.719, 0.695, 1077.784, 396.077)" fill="#fff"/>
          </g>
          <g transform="translate(-1077.213 -125.794)">
            <rect id="Retângulo_1876-56" data-name="Retângulo 1876" width="36" height="12" rx="6" transform="matrix(0.695, -0.719, 0.719, 0.695, 1077.784, 396.077)" fill="#fff"/>
          </g>
          <g transform="translate(-1077.213 -90.794)">
            <rect id="Retângulo_1876-57" data-name="Retângulo 1876" width="36" height="12" rx="6" transform="matrix(0.695, -0.719, 0.719, 0.695, 1077.784, 396.077)" fill="#fff"/>
          </g>
          <g transform="translate(-1077.213 -55.794)">
            <rect id="Retângulo_1876-58" data-name="Retângulo 1876" width="36" height="12" rx="6" transform="matrix(0.695, -0.719, 0.719, 0.695, 1077.784, 396.077)" fill="#fff"/>
          </g>
        </g>
      </g>
    </g>
  </g>
</svg>
