<svg xmlns="http://www.w3.org/2000/svg" xmlns:xlink="http://www.w3.org/1999/xlink" width="2023.379" height="2294.597" viewBox="0 0 2023.379 2294.597">
  <defs>
    <linearGradient id="linear-gradient" x1="0.5" x2="0.5" y2="1" gradientUnits="objectBoundingBox">
      <stop offset="0" stop-color="#1178be"/>
      <stop offset="1" stop-color="#25a8e0"/>
    </linearGradient>
    <linearGradient id="linear-gradient-2" x1="0.181" y1="0.682" x2="0.822" y2="0.045" gradientUnits="objectBoundingBox">
      <stop offset="0" stop-color="#f28f16"/>
      <stop offset="1" stop-color="#f8a930"/>
    </linearGradient>
  </defs>
  <g id="Faded_Logo_Background" data-name="Faded Logo Background" transform="translate(495.023) rotate(21)" opacity="0.08">
    <path id="Caminho_10630" data-name="Caminho 10630" d="M820.51,0a40.931,40.931,0,0,0,7.2,4.829l222.4,86.357L1324.161,197.6l212.167,82.673,90.859,35.361a28.486,28.486,0,0,1,9.9,5.4c-4.5,1.719-9,3.52-13.588,5.157q-51.323,18.335-102.728,36.425c-5.157,1.8-8.185,4.175-6.548,10.15a45.749,45.749,0,0,1,.491,10.641q0,187.119,0,374.239c0,9.9.409,15.88,11.623,20.545a47.066,47.066,0,0,1,29.55,49.113c-1.146,22.674-13.424,37.489-33.888,47.23a51,51,0,0,1-30.368,3.111c-20.136-3.111-40.191-28.24-40.927-48.622a52.714,52.714,0,0,1,36.753-54.843,9.495,9.495,0,0,0,4.911-6.794q0-191.294,0-382.506V373.093l-62.619,22.592c-37.98,13.67-75.961,27.421-114.105,40.927a8.186,8.186,0,0,0-6.712,9.331c0,25.129-.573,50.341-.982,75.47q-1.391,75.715-2.947,151.595c0,.491,0,.982-1.064,2.292a1023.183,1023.183,0,0,0-479.5-121.472c-302.125,0-491.946,118.443-492.764,118.935s-2.783,1.392-5.321,2.619V445.7a8.186,8.186,0,0,0-6.712-9.168Q187.119,388.645,54.679,340.515c-16.944-6.139-34.051-11.787-51-17.762-.9,0-1.555-1.228-3.683-3.029l10.15-3.847q142.672-55.743,285.263-111.24c50.422-19.727,100.927-39.045,151.267-58.69q87.789-34.747,175.414-69Q713.608,40.927,805.367,5.484A43.056,43.056,0,0,0,813.553,0Z" fill="url(#linear-gradient)"/>
    <path id="Caminho_10631" data-name="Caminho 10631" d="M594.736,82.879c-2.374,13.424-4.584,26.521-6.876,39.7q-10.8,62.946-21.855,125.892c-8.186,48.212-17.108,96.343-25.457,144.555-9.168,52.469-18.09,104.938-27.258,157.406-3.274,18.827-6.958,37.571-10.068,56.4a10.968,10.968,0,0,0,2.128,8.185c46,45.675,92.168,91.1,139.726,138.007,11.542-11.951,22.837-24.147,34.625-35.771,32.742-32.333,65.484-64.829,99.453-96.588a22.1,22.1,0,0,0,6.712-22.265q-11.378-67.039-22.019-134.16c-7.04-44.2-13.67-88.567-20.627-132.768-6.139-38.881-12.524-77.68-18.745-116.561-6.794-42.81-13.506-89.3-20.464-132.932a99.837,99.837,0,0,1,13.1,0,1219.645,1219.645,0,0,1,294.677,69.331c21.609,7.694,42.892,16.371,64.092,24.556a17.763,17.763,0,0,1,8.84,8.185q46.657,115.742,92.823,231.73,38.062,95.115,76.043,190.23c5.239,12.933,5.4,12.688-6.221,21.364a2120.08,2120.08,0,0,0-163.709,135.142c-39.618,36.343-79.317,72.85-116.889,111.322-39.536,40.436-77.353,82.673-114.6,125.319a1368.554,1368.554,0,0,0-152.413,212.085c-19.645,33.969-36.343,69.658-54.433,104.528a33.168,33.168,0,0,1-2.865,4.011c-5.73-11.542-10.887-22.428-16.371-32.742a1508.087,1508.087,0,0,0-113.614-181.881A2068.964,2068.964,0,0,0,329.2,885.873,2180.086,2180.086,0,0,0,140.362,709.885c-37.08-30.614-75.879-59.1-113.778-88.649a5.894,5.894,0,0,1-1.883-4.993c8.185-18.663,16.371-37,24.556-55.825,21.691-52.714,43.056-105.674,64.583-158.47L202.9,184.706a21.774,21.774,0,0,1,9.086-9.577,637.814,637.814,0,0,1,143.737-56.48c39.126-10.068,78.662-19.318,118.525-25.457A810.953,810.953,0,0,1,590.07,82.306a23,23,0,0,1,4.666.573Z" transform="translate(177.234 587.51)" fill="url(#linear-gradient-2)"/>
  </g>
</svg>
