<svg xmlns="http://www.w3.org/2000/svg" xmlns:xlink="http://www.w3.org/1999/xlink" width="180" height="31.25" viewBox="0 0 180 31.25">
  <defs>
    <linearGradient id="linear-gradient" x1="0.5" y1="1" x2="0.5" gradientUnits="objectBoundingBox">
      <stop offset="0" stop-color="#1178be"/>
      <stop offset="1" stop-color="#25a8e0"/>
    </linearGradient>
    <linearGradient id="linear-gradient-2" x1="0.5" y1="0.999" x2="0.5" y2="-0.001" xlink:href="#linear-gradient"/>
    <linearGradient id="linear-gradient-3" x1="0.5" y1="1" x2="0.5" y2="0" xlink:href="#linear-gradient"/>
    <linearGradient id="linear-gradient-4" x1="0.499" y1="1" x2="0.499" y2="0" xlink:href="#linear-gradient"/>
    <linearGradient id="linear-gradient-6" x1="0.499" y1="1" x2="0.499" y2="0" xlink:href="#linear-gradient"/>
    <linearGradient id="linear-gradient-7" x1="0.5" y1="1" x2="0.5" y2="0" xlink:href="#linear-gradient"/>
    <linearGradient id="linear-gradient-8" x1="0.5" y1="1" x2="0.5" y2="0" xlink:href="#linear-gradient"/>
    <linearGradient id="linear-gradient-9" x1="0.5" y1="1" x2="0.5" y2="0" xlink:href="#linear-gradient"/>
    <linearGradient id="linear-gradient-11" x1="0.5" y1="1" x2="0.5" y2="0.002" gradientUnits="objectBoundingBox">
      <stop offset="0" stop-color="#1888c9"/>
      <stop offset="1" stop-color="#1b8fce"/>
    </linearGradient>
    <linearGradient id="linear-gradient-12" x1="0.5" y1="0" x2="0.5" y2="0.999" xlink:href="#linear-gradient"/>
    <linearGradient id="linear-gradient-13" x1="0.181" y1="0.681" x2="0.822" y2="0.044" gradientUnits="objectBoundingBox">
      <stop offset="0" stop-color="#f28f16"/>
      <stop offset="1" stop-color="#f8a930"/>
    </linearGradient>
  </defs>
  <g id="Logo" transform="translate(-50 -50)">
    <g id="learnistic-horizontal" transform="translate(50 50)">
      <g id="Grupo_10893" data-name="Grupo 10893" transform="translate(175.835 6.429)">
        <path id="Caminho_10615" data-name="Caminho 10615" d="M981.47,35.5c-.138.435-.418,1.349-.418,1.349h-.433l-.494-1.653-.094,1.679h-.38l.145-1.959h.543c.016,0,.042.027.049.047.154.44.165.451.435,1.329a.515.515,0,0,0,.024.091c.036-.123.063-.232.1-.335l.362-1.087a.074.074,0,0,1,.054-.042h.527l.181,1.959h-.4l-.092-1.691" transform="translate(-977.903 -34.92)" fill="#1279be"/>
        <path id="Caminho_10616" data-name="Caminho 10616" d="M970.621,35.315H970V35h1.644v.308h-.63V36.95h-.388Z" transform="translate(-970 -34.986)" fill="#1279be"/>
      </g>
      <g id="Grupo_10896" data-name="Grupo 10896" transform="translate(31.665 5.252)">
        <g id="Grupo_10894" data-name="Grupo 10894">
          <path id="Caminho_10617" data-name="Caminho 10617" d="M188.655,49.982H173.86V28.42H180.2V44.946h8.459Z" transform="translate(-173.86 -28.42)" fill="url(#linear-gradient)"/>
          <path id="Caminho_10618" data-name="Caminho 10618" d="M281.3,65.7c-.509,3.557-3.622,5.768-8.149,5.768-5.409,0-8.622-3.212-8.622-8.576,0-5.395,3.243-8.757,8.428-8.757,5.11,0,8.413,3.26,8.413,8.308V64.1H270.433v.389a2.69,2.69,0,0,0,2.809,2.778,2.6,2.6,0,0,0,2.6-1.568ZM270.526,60.77h5.136a2.475,2.475,0,0,0-2.571-2.436A2.555,2.555,0,0,0,270.526,60.77Z" transform="translate(-248.111 -49.474)" fill="url(#linear-gradient-2)"/>
          <path id="Caminho_10619" data-name="Caminho 10619" d="M364.48,66.2c0-3.167,2.436-4.889,6.845-5.156l3.622-.223v-.808c0-1.106-.837-1.7-1.992-1.7a1.94,1.94,0,0,0-2.151,1.525h-5.472c.15-3.526,3.138-5.753,7.951-5.753,4.572,0,7.635,2.287,7.635,5.634V71h-5.976V68.784h-.12a5.383,5.383,0,0,1-4.781,2.45C367.035,71.234,364.48,69.174,364.48,66.2Zm10.46-1.03V64.092l-2.6.181c-1.166.089-1.824.643-1.824,1.449,0,.905.724,1.42,1.811,1.42C373.685,67.14,374.94,66.379,374.94,65.168Z" transform="translate(-329.961 -49.433)" fill="url(#linear-gradient-3)"/>
          <path id="Caminho_10620" data-name="Caminho 10620" d="M468,55.308h5.976v3.243h.12c.627-2.354,1.9-3.482,3.855-3.482a4.139,4.139,0,0,1,1.434.239v5.141a4.59,4.59,0,0,0-1.778-.344c-2.3,0-3.482,1.181-3.482,3.482V71.8H468Z" transform="translate(-414.735 -50.243)" fill="url(#linear-gradient-4)"/>
          <path id="Caminho_10621" data-name="Caminho 10621" d="M538.85,54.908h5.976v3.243h.12a5.018,5.018,0,0,1,5.07-3.571c3.705,0,5.737,2.3,5.737,6.26V71.4h-6.13V62.2c0-1.659-.777-2.675-2.316-2.675a2.374,2.374,0,0,0-2.331,2.66V71.4H538.85Z" transform="translate(-472.755 -49.843)" fill="url(#linear-gradient)"/>
        </g>
        <g id="Grupo_10895" data-name="Grupo 10895" transform="translate(93.22 0.092)">
          <path id="Caminho_10622" data-name="Caminho 10622" d="M688.64,30.56a1.63,1.63,0,1,1,1.63,1.63A1.63,1.63,0,0,1,688.64,30.56Zm.33,4.393h2.6V50.492h-2.6Z" transform="translate(-688.64 -28.93)" fill="url(#linear-gradient-6)"/>
          <path id="Caminho_10623" data-name="Caminho 10623" d="M726.386,60.7c3.406,0,5.679,2,5.782,4.752h-2.481c-.194-1.63-1.389-2.629-3.3-2.629s-3.153.942-3.153,2.3c0,1.076.791,1.811,2.524,2.226l2.466.6c3.138.762,4.274,1.992,4.274,4.214,0,2.705-2.555,4.618-6.023,4.618-3.645,0-5.916-1.838-6.215-4.752h2.6c.315,1.778,1.51,2.629,3.622,2.629s3.408-.905,3.408-2.3c0-1.121-.614-1.764-2.392-2.2l-2.465-.6c-2.93-.7-4.346-2.063-4.346-4.3C720.678,62.6,723.023,60.7,726.386,60.7Z" transform="translate(-714.534 -54.947)" fill="url(#linear-gradient-7)"/>
          <path id="Caminho_10624" data-name="Caminho 10624" d="M803.286,41.47v3.752H806.3v2.139h-3.017V56.6c0,1.42.6,2.063,1.927,2.063a10.372,10.372,0,0,0,1.076-.074v2.173a9.292,9.292,0,0,1-1.642.12c-2.856,0-3.96-1.166-3.96-4.154V47.361H798.37V45.222h2.316V41.47Z" transform="translate(-778.499 -39.199)" fill="url(#linear-gradient-8)"/>
          <path id="Caminho_10625" data-name="Caminho 10625" d="M856.22,30.56a1.63,1.63,0,1,1,1.63,1.63A1.63,1.63,0,0,1,856.22,30.56Zm.322,4.393h2.608V50.492h-2.608Z" transform="translate(-825.873 -28.93)" fill="url(#linear-gradient-9)"/>
          <path id="Caminho_10626" data-name="Caminho 10626" d="M898.561,66.066a3.817,3.817,0,0,0-3.975-3.078c-2.689,0-4.518,2.226-4.518,5.753,0,3.622,1.852,5.753,4.543,5.753a3.75,3.75,0,0,0,3.96-2.99h2.561c-.4,3.093-3,5.275-6.53,5.275-4.3,0-7.173-3.033-7.173-8.038,0-4.9,2.854-8.04,7.142-8.04a6.187,6.187,0,0,1,6.53,5.366Z" transform="translate(-851.432 -54.947)" fill="url(#linear-gradient)"/>
        </g>
        <path id="Caminho_10627" data-name="Caminho 10627" d="M649.32,89.83a1.69,1.69,0,1,1,1.69,1.69A1.69,1.69,0,0,1,649.32,89.83Z" transform="translate(-563.221 -77.326)" fill="url(#linear-gradient-11)"/>
      </g>
      <g id="Grupo_10897" data-name="Grupo 10897" transform="translate(0 0)">
        <path id="Caminho_10628" data-name="Caminho 10628" d="M12.431-.58a.712.712,0,0,0,.12.078L16.191.912l4.487,1.742,3.473,1.353,1.487.589a.471.471,0,0,1,.163.089l-.221.085-1.682.6c-.085.031-.13.069-.107.167a.79.79,0,0,1,0,.181v6.126c0,.163,0,.261.192.337a.773.773,0,0,1,.484.808.867.867,0,0,1-.556.773.819.819,0,0,1-.5.051.924.924,0,0,1-.67-.795.864.864,0,0,1,.6-.905.148.148,0,0,0,.08-.11q0-3.129,0-6.26V5.528L22.4,5.89c-.623.223-1.244.447-1.867.668a.139.139,0,0,0-.11.154c0,.411,0,.822-.018,1.235q-.022,1.242-.047,2.481a.066.066,0,0,1-.018.038,16.741,16.741,0,0,0-7.848-1.992,16.35,16.35,0,0,0-8.058,1.958.753.753,0,0,1-.085.042V6.718a.134.134,0,0,0-.11-.15Q2.064,5.785-.109,5C-.382,4.894-.661,4.8-.94,4.7c-.014,0-.025-.022-.06-.051L-.833,4.6l4.67-1.831c.824-.322,1.652-.637,2.477-.96C7.27,1.432,8.235,1.053,9.182.679l3-1.168a.833.833,0,0,0,.139-.091Z" transform="translate(1 0.58)" fill="url(#linear-gradient-12)"/>
        <path id="Caminho_10629" data-name="Caminho 10629" d="M26.587,59.968c-.038.221-.074.435-.112.65-.12.688-.237,1.374-.362,2.063-.138.788-.279,1.575-.417,2.365-.15.858-.3,1.719-.445,2.577-.054.308-.114.616-.167.924a.181.181,0,0,0,.036.139c.752.748,1.508,1.492,2.287,2.26.181-.2.375-.395.567-.585.543-.531,1.087-1.063,1.63-1.583a.362.362,0,0,0,.11-.362l-.362-2.2c-.116-.724-.223-1.449-.339-2.173-.1-.637-.2-1.268-.306-1.909-.112-.7-.223-1.463-.335-2.173a1.682,1.682,0,0,1,.214,0A20,20,0,0,1,33.407,61.1c.362.125.7.264,1.05.406a.286.286,0,0,1,.143.141q.766,1.892,1.521,3.8l1.244,3.113c.085.212.089.208-.1.349-.929.7-1.827,1.429-2.682,2.213-.648.6-1.3,1.193-1.914,1.824C32.021,73.61,31.4,74.3,30.8,75a22.212,22.212,0,0,0-2.5,3.471c-.322.556-.6,1.141-.891,1.711a.485.485,0,0,1-.047.065c-.094-.181-.181-.362-.27-.543a24.447,24.447,0,0,0-1.856-2.986,33.864,33.864,0,0,0-3-3.6,35.47,35.47,0,0,0-3.091-2.879c-.607-.5-1.242-.969-1.863-1.449a.092.092,0,0,1-.029-.081c.13-.306.273-.607.4-.914.362-.864.706-1.729,1.058-2.595.485-1.186.969-2.374,1.46-3.558a.339.339,0,0,1,.148-.158,10.382,10.382,0,0,1,2.354-.924c.641-.165,1.288-.317,1.941-.418a13.666,13.666,0,0,1,1.9-.181A.471.471,0,0,1,26.587,59.968Z" transform="translate(-13.949 -48.998)" fill="url(#linear-gradient-13)"/>
      </g>
    </g>
  </g>
</svg>
