<svg id="logo-icon" xmlns="http://www.w3.org/2000/svg" xmlns:xlink="http://www.w3.org/1999/xlink" width="20" height="23.301" viewBox="0 0 20 23.301">
  <defs>
    <linearGradient id="linear-gradient" x1="0.5" x2="0.5" y2="1" gradientUnits="objectBoundingBox">
      <stop offset="0" stop-color="#1178be"/>
      <stop offset="1" stop-color="#25a8e0"/>
    </linearGradient>
    <linearGradient id="linear-gradient-2" x1="0.181" y1="0.682" x2="0.822" y2="0.045" gradientUnits="objectBoundingBox">
      <stop offset="0" stop-color="#f28f16"/>
      <stop offset="1" stop-color="#f8a930"/>
    </linearGradient>
  </defs>
  <path id="Path_1183" data-name="Path 1183" d="M10.024,0a.5.5,0,0,0,.088.059l2.717,1.059,3.348,1.305,2.592,1.014,1.11.434A.348.348,0,0,1,20,3.938c-.055.021-.11.043-.166.063q-.627.225-1.255.447c-.063.022-.1.051-.08.125A.564.564,0,0,1,18.5,4.7V9.294c0,.121,0,.195.142.252a.578.578,0,0,1,.361.6.648.648,0,0,1-.414.579.621.621,0,0,1-.371.038.7.7,0,0,1-.5-.6.647.647,0,0,1,.449-.673.116.116,0,0,0,.06-.083q0-2.347,0-4.692V4.577l-.765.277c-.464.168-.928.336-1.394.5a.1.1,0,0,0-.082.114c0,.308-.007.618-.012.926q-.017.929-.036,1.86c0,.006,0,.012-.013.028a12.46,12.46,0,0,0-5.858-1.49,12.144,12.144,0,0,0-6.02,1.459c-.01.006-.034.017-.065.032V5.467A.1.1,0,0,0,3.9,5.355Q2.286,4.767.668,4.177C.461,4.1.252,4.032.045,3.959c-.011,0-.019-.015-.045-.037l.124-.047L3.609,2.51c.616-.242,1.233-.479,1.848-.72Q6.529,1.364,7.6.944,8.718.5,9.839.067A.526.526,0,0,0,9.939,0Z" fill="url(#linear-gradient)"/>
  <path id="Path_1184" data-name="Path 1184" d="M31.621,81.777c-.029.165-.056.325-.084.487q-.132.772-.267,1.544c-.1.591-.209,1.182-.311,1.773-.112.644-.221,1.287-.333,1.931-.04.231-.085.461-.123.692a.135.135,0,0,0,.026.1c.561.56,1.124,1.118,1.7,1.693.141-.147.279-.3.422-.439.4-.4.8-.8,1.213-1.185a.272.272,0,0,0,.082-.273q-.139-.822-.269-1.646c-.086-.542-.167-1.086-.252-1.629-.075-.477-.153-.953-.229-1.43-.083-.525-.165-1.1-.25-1.631a1.211,1.211,0,0,1,.16,0,14.813,14.813,0,0,1,3.6.85c.264.094.523.2.782.3a.217.217,0,0,1,.108.1q.569,1.42,1.132,2.843l.928,2.333c.064.159.066.156-.076.262a25.9,25.9,0,0,0-2,1.658c-.483.446-.968.894-1.426,1.366-.482.5-.944,1.014-1.4,1.537a16.786,16.786,0,0,0-1.86,2.6c-.24.417-.443.854-.664,1.282a.406.406,0,0,1-.035.049c-.07-.142-.133-.275-.2-.4a18.515,18.515,0,0,0-1.386-2.231,25.348,25.348,0,0,0-2.236-2.69,26.656,26.656,0,0,0-2.3-2.159c-.452-.376-.926-.725-1.388-1.087a.073.073,0,0,1-.023-.061c.1-.229.2-.454.3-.685.265-.647.525-1.3.788-1.944l1.087-2.665a.266.266,0,0,1,.111-.117,7.757,7.757,0,0,1,1.754-.693c.477-.124.96-.237,1.446-.312a9.841,9.841,0,0,1,1.413-.134A.279.279,0,0,1,31.621,81.777Z" transform="translate(-22.189 -73.649)" fill="url(#linear-gradient-2)"/>
</svg>
