<svg xmlns="http://www.w3.org/2000/svg" width="160" height="130.621" viewBox="0 0 160 130.621">
  <g id="Audio" transform="translate(-4093 -1512.459)">
    <path id="Path_10523" data-name="Path 10523" d="M2.26,0H9.944A2.26,2.26,0,0,1,12.2,2.26V14.915a2.26,2.26,0,0,1-2.26,2.26H2.26A2.26,2.26,0,0,1,0,14.915V2.26A2.26,2.26,0,0,1,2.26,0Z" transform="translate(4093 1567.149)" fill="#c4c4c4"/>
    <path id="Path_10522" data-name="Path 10522" d="M2.26,0H9.944A2.26,2.26,0,0,1,12.2,2.26V35.254a2.26,2.26,0,0,1-2.26,2.26H2.26A2.26,2.26,0,0,1,0,35.254V2.26A2.26,2.26,0,0,1,2.26,0Z" transform="translate(4118.311 1559.013)" fill="#c4c4c4"/>
    <path id="Path_10521" data-name="Path 10521" d="M2.26,0H9.944A2.26,2.26,0,0,1,12.2,2.26V81.808a2.26,2.26,0,0,1-2.26,2.26H2.26A2.26,2.26,0,0,1,0,81.808V2.26A2.26,2.26,0,0,1,2.26,0Z" transform="translate(4143.622 1533.702)" fill="#c4c4c4"/>
    <path id="Path_10520" data-name="Path 10520" d="M2.26,0H9.944A2.26,2.26,0,0,1,12.2,2.26v126.1a2.26,2.26,0,0,1-2.26,2.26H2.26A2.26,2.26,0,0,1,0,128.362V2.26A2.26,2.26,0,0,1,2.26,0Z" transform="translate(4168.932 1512.459)" fill="#c4c4c4"/>
    <path id="Path_10519" data-name="Path 10519" d="M2.26,0H9.944A2.26,2.26,0,0,1,12.2,2.26V65.537a2.26,2.26,0,0,1-2.26,2.26H2.26A2.26,2.26,0,0,1,0,65.537V2.26A2.26,2.26,0,0,1,2.26,0Z" transform="translate(4194.243 1541.838)" fill="#c4c4c4"/>
    <path id="Path_10517" data-name="Path 10517" d="M2.26,0H9.944A2.26,2.26,0,0,1,12.2,2.26V98.079a2.26,2.26,0,0,1-2.26,2.26H2.26A2.26,2.26,0,0,1,0,98.079V2.26A2.26,2.26,0,0,1,2.26,0Z" transform="translate(4219.554 1525.567)" fill="#c4c4c4"/>
    <path id="Path_10518" data-name="Path 10518" d="M2.26,0h8.588a2.26,2.26,0,0,1,2.26,2.26V14.915a2.26,2.26,0,0,1-2.26,2.26H2.26A2.26,2.26,0,0,1,0,14.915V2.26A2.26,2.26,0,0,1,2.26,0Z" transform="translate(4239.893 1567.149)" fill="#c4c4c4"/>
  </g>
</svg>
