<svg xmlns="http://www.w3.org/2000/svg" width="16" height="15.999" viewBox="0 0 16 15.999">
  <path id="União_30" data-name="União 30" d="M-10897.769-4554.489l-6.735-6.736a1.686,1.686,0,0,1-.5-1.2v-5.9a1.69,1.69,0,0,1,1.685-1.685h5.9a1.681,1.681,0,0,1,1.188.489l6.736,6.736a1.709,1.709,0,0,1,.5,1.2,1.648,1.648,0,0,1-.5,1.187l-5.9,5.895a1.645,1.645,0,0,1-1.187.5A1.686,1.686,0,0,1-10897.769-4554.489Zm-5.549-7.932,6.736,6.743,5.9-5.909-6.736-6.737v.009h-5.9Zm.842-3.792a1.265,1.265,0,0,1,1.265-1.263,1.264,1.264,0,0,1,1.264,1.263,1.264,1.264,0,0,1-1.264,1.265A1.265,1.265,0,0,1-10902.476-4566.212Z" transform="translate(10905.002 4570)" fill="#2f2f2f"/>
</svg>
